<svg width="1661.0000000000002" height="1787" xmlns="http://www.w3.org/2000/svg" xml:space="preserve" version="1.1">

 <g>
  <title>Layer 1</title>
  <g id="XMLID_00000036214297176347256030000016924443283114953870_">
   <path fill="none" d="m550.45991,448.03997c-9.11,0 -16.5,7.39 -16.5,16.5s7.38,16.49 16.5,16.49c9.11,0 16.49,-7.38 16.49,-16.49s-7.38,-16.5 -16.49,-16.5z" class="st1" id="XMLID_00000101067660341493522750000000637919122563339423_"/>
   <path fill="none" d="m1155.90991,470.79997c11.56,14.84 19.57,30.52 24.27,44.53c4.73,14.03 6.37,26.35 6.73,34.98c0.3,4.34 0.13,7.73 0.04,10.05c-0.06,2.33 -0.09,3.57 -0.09,3.57s0.48,-1.14 1.38,-3.28c0.92,-2.17 2.29,-5.39 3.45,-9.75c2.55,-8.64 4.93,-21.92 3.63,-38.58c-1.28,-16.58 -6.5,-36.4 -17.77,-56.03c-5.71,-9.74 -12.94,-19.4 -21.97,-28.18c-8.96,-8.87 -19.66,-16.36 -31.33,-22.51c-23.43,-12.08 -49.29,-17.12 -72.59,-14.16c-11.69,1.42 -22,4.76 -30.9,8.32c-8.94,3.58 -16.71,7.35 -23.74,10.66c-13.96,6.74 -25.33,11.23 -33.74,13.47c-4.17,1.04 -7.51,1.83 -9.8,2.14c-2.3,0.4 -3.51,0.61 -3.51,0.61s1.21,0.25 3.5,0.71c2.31,0.53 5.75,0.96 10.28,1.34c9,0.65 22.44,-0.35 38.07,-3.6c15.6,-2.95 33.55,-8.05 51.42,-7.64c17.97,0.26 37.9,5.85 56.78,15.56c19.02,9.8 34.18,22.95 45.89,37.79z" class="st1" id="XMLID_00000040554091202790985610000005405126087832710819_"/>
   <path fill="none" d="m523.36991,499.40997c-3.21,-1.53 -7.13,-2.23 -11.38,-1.8c-8.54,0.7 -18.58,5.98 -25.72,14.83c-1.83,2.16 -7.67,9.72 -14.24,21.8c-6.46,12.08 -13.35,28.66 -18.48,47.84c-5.3,19.04 -9.55,41.22 -11.85,64.83c-2.36,23.61 -2.24,48.67 0.28,73.22c2.48,24.55 7.39,48.56 13.88,70.32c6.4,21.8 14.95,41.12 22.93,57.1c16.63,31.82 32.59,49.35 35.21,47.64c3.21,-1.98 -6.86,-22.76 -17.18,-55.12c-4.87,-16.28 -10.26,-35.27 -13.69,-56.12c-3.52,-20.81 -5.66,-43.24 -5.75,-65.73c-0.14,-22.48 1.72,-45.01 5.53,-65.87c3.76,-20.87 8.94,-40.13 14.72,-56.48c5.6,-16.33 11.92,-28.84 17.09,-37.34c5.28,-8.41 9.24,-13.04 10.4,-14.4c4.54,-5.6 7.05,-11.65 8.24,-18.23c1.06,-6.57 0.97,-13.59 -2.55,-19.66c-1.75,-2.99 -4.23,-5.32 -7.44,-6.83z" class="st1" id="XMLID_00000075880029886835177820000010241470470896241291_"/>
   <path fill="none" d="m1155.90991,470.79997c11.56,14.84 19.57,30.52 24.27,44.53c4.73,14.03 6.37,26.35 6.73,34.98c0.3,4.34 0.13,7.73 0.04,10.05c-0.06,2.33 -0.09,3.57 -0.09,3.57s0.48,-1.14 1.38,-3.28c0.92,-2.17 2.29,-5.39 3.45,-9.75c2.55,-8.64 4.93,-21.92 3.63,-38.58c-1.28,-16.58 -6.5,-36.4 -17.77,-56.03c-5.71,-9.74 -12.94,-19.4 -21.97,-28.18c-8.96,-8.87 -19.66,-16.36 -31.33,-22.51c-23.43,-12.08 -49.29,-17.12 -72.59,-14.16c-11.69,1.42 -22,4.76 -30.9,8.32c-8.94,3.58 -16.71,7.35 -23.74,10.66c-13.96,6.74 -25.33,11.23 -33.74,13.47c-4.17,1.04 -7.51,1.83 -9.8,2.14c-2.3,0.4 -3.51,0.61 -3.51,0.61s1.21,0.25 3.5,0.71c2.31,0.53 5.75,0.96 10.28,1.34c9,0.65 22.44,-0.35 38.07,-3.6c15.6,-2.95 33.55,-8.05 51.43,-7.64c17.97,0.26 37.9,5.85 56.78,15.56c19.01,9.8 34.17,22.95 45.88,37.79z" class="st1" id="XMLID_00000107579984931551207640000001543612510517371050_"/>
   <path fill="none" d="m1190.17991,807.44997c-12.8,-5.45 -27.06,-0.63 -32.43,10.5c-1.42,2.77 -8.22,19.2 -19.76,41.4c-11.35,22.3 -27.94,50.06 -46.29,76.45c-18.38,26.35 -38.71,51.07 -54.37,69.44c-15.66,18.35 -26.32,30.73 -24.09,33.53c2.06,2.61 16.95,-4.67 37.28,-19.15c20.29,-14.46 45.62,-36.51 68.74,-61.53c23.08,-25.02 44.08,-52.71 58.62,-75.46c14.74,-22.64 23.5,-39.93 25.03,-42.93c5.93,-12.28 -0.05,-26.86 -12.73,-32.25z" class="st1" id="XMLID_00000057849840461800231850000017954079394967786676_"/>
   <circle fill="none" r="23.19" cy="753.26997" cx="1208.83991" class="st1" id="XMLID_00000116918501316191117220000001764648733794370184_"/>
   <path id="svg_1" fill="#28BC28" d="m929.48991,382.43997c-4.05,2.17 -8.16,4.16 -12.3,6.05c-2.05,2.97 -4.04,6.01 -6.01,9.1c1.97,-3.09 3.96,-6.13 6,-9.1c-26.56,12.01 -54.98,18.18 -83.48,18.64c-0.09,0.53 -0.2,1.09 -0.29,1.61c-3.85,22.68 -5.45,38.63 -10.13,39.29c-2.22,0.31 -4.8,-3.31 -7.63,-10.12c-1.42,-3.4 -2.97,-7.6 -4.08,-12.52c-1.12,-4.91 -2.66,-10.52 -3.43,-16.72c-0.14,-0.85 -0.22,-1.79 -0.35,-2.66c-16.97,-1.82 -33.77,-5.68 -50.02,-11.62c0,0 0,0 0,0c-9.17,-3.35 -18.2,-7.29 -26.95,-11.96c-33.82,-18.01 -66.04,-28.62 -96.29,-32.84c-158.59,-22.17 -262.98,131.52 -262.98,316.45c0,166.52 88.78,312.31 221.56,392.64c36.92,22.34 77.24,39.62 119.98,50.87c18.49,4.87 36.83,3.91 53.35,-1.58c41.19,-13.68 86.24,-13.68 127.44,0c16.52,5.49 34.86,6.44 53.35,1.58c196.58,-51.75 341.54,-230.71 341.54,-443.52c0.02,-220.17 -147.96,-396.15 -359.28,-283.59zm-169.22,17.73c-0.07,-0.14 -0.13,-0.27 -0.2,-0.41c0.07,0.14 0.14,0.28 0.2,0.41z" class="st0"/>
   <path d="m928.08991,209.47997c-1.36,-6.89 -5.07,-14.62 -11.12,-21.23c-6.05,-6.61 -13.43,-10.75 -20.73,-11.83c-7.2,-1.03 -14.66,0.69 -19.27,6.06c-2.26,2.65 -15.84,17.8 -29.87,42c-14.38,23.92 -28.01,57.24 -35.3,91.15c-7.01,32.83 -7.51,65.87 -4.01,90.37c0.12,0.87 0.21,1.81 0.35,2.66c0.77,6.19 2.31,11.8 3.43,16.72c1.11,4.92 2.66,9.12 4.08,12.52c2.83,6.81 5.41,10.43 7.63,10.12c4.67,-0.66 6.28,-16.61 10.13,-39.29c0.09,-0.52 0.2,-1.09 0.29,-1.61c3.9,-22.48 10.82,-51.17 22.04,-78.21c11.58,-27.65 26.89,-53.41 41.15,-71.28c13.96,-18.14 25.93,-28.91 27.73,-31.06c3.62,-4.3 4.89,-10.1 3.47,-17.09z" id="XMLID_00000042714703225126736610000017606670136844899500_"/>
   <path fill="#28BC28" d="m603.15991,300.97997c40.67,20.61 104.15,32.4 159.24,37.21c-37.54,-62.19 -104.54,-150.62 -219.21,-243.57c0,0 150.7,62.09 247.34,182.22c-62.85,-299.31 -339.98,-275.31 -342.8,-271.21c-46.63,67.8 -8.35,145.73 44.19,208.19c30.64,36.42 68.88,65.69 111.24,87.16z" class="st0" id="XMLID_00000010275915540090962080000004808658765204550833_"/>
  </g>
  <g id="svg_2">
   <path id="svg_3" d="m674.12991,1783.25997c-1.24,0 -2.48,-0.13 -3.72,-0.41c-6.5,-1.45 -11.56,-6.53 -13,-13.02c-21.65,-98.36 -55.56,-169.76 -106.68,-224.7c-46.05,-49.48 -102.41,-81.48 -162.08,-115.35c-89.46,-50.79 -190.85,-108.35 -284.75,-238.61c-73.34,-101.79 -90.27,-283.45 -99.36,-381.05c-1,-10.73 -1.91,-20.51 -2.8,-29.12c-4.94,-48.17 23.33,-113 53.26,-181.64c15.66,-35.91 31.85,-73.04 41.56,-105.12c1.49,-4.88 3.5,-13.27 5.63,-22.16c12.52,-52.25 19.82,-75.63 37.25,-80.19c14.85,-3.91 31.1,1.33 44.57,14.4c22.07,21.43 40.29,67.39 25.24,132.13c-28.85,123.83 -40.84,174.69 -41.78,178.7c10.5,2.78 22.08,8.14 34.69,16.07c35.35,22.27 71.6,84.79 109.97,150.97c24.49,42.25 49.82,85.93 73.38,115.6c21.3,26.76 54.62,44.62 93.2,65.29c24.28,13.01 51.8,27.75 79.2,46.5c141.57,96.97 222.76,205.29 241.32,321.95c17.29,108.72 -20.24,224.14 -111.54,343.07c-3.27,4.27 -8.31,6.69 -13.56,6.69zm-522.74,-1358.09c-5.35,10.82 -12.34,40.03 -15.9,54.88c-2.35,9.82 -4.38,18.3 -6.17,24.14c-10.29,33.97 -26.88,72.03 -42.93,108.85c-26.85,61.57 -54.6,125.23 -50.58,164.47c0.89,8.7 1.81,18.59 2.83,29.44c8.79,94.35 25.15,269.99 93.04,364.21c89.53,124.2 183.25,177.4 273.88,228.86c62.02,35.21 120.6,68.47 170.24,121.8c48.87,52.52 83.06,118.12 106.25,204.5c69.71,-100.58 97.76,-197.13 83.4,-287.43c-17.02,-107.01 -93.35,-207.64 -226.85,-299.09c-25.86,-17.7 -51.37,-31.36 -76.03,-44.57c-40.18,-21.53 -78.14,-41.86 -103.84,-74.16c-25.13,-31.64 -51.09,-76.42 -76.2,-119.73c-34.61,-59.68 -70.39,-121.4 -98.59,-139.17c-27.13,-17.06 -35.67,-12.73 -36.56,-12.18c-4.8,2.98 -6.69,16.29 -6.1,25.47c24.13,75.68 61.87,191.58 68.56,205.67c10.9,22.73 57.81,88.82 69.48,95.75c7.21,4.28 10.28,13.18 7.21,20.99c-3.07,7.81 -11.32,12.24 -19.53,10.48c-34.7,-7.52 -87.28,-84.05 -102.56,-107.32c-8.68,-13.2 -13.38,-29.16 -18.35,-46.06c-1.51,-5.14 -3.08,-10.46 -4.74,-15.6c-9.24,-28.17 -18.38,-52.35 -26.45,-73.67c-18.41,-48.69 -31.72,-83.86 -26.31,-117.13c3.72,-22.95 16.38,-39.9 35.65,-47.71c4.49,-1.82 8.85,-2.94 12.77,-3.62c5.1,-21.69 17.25,-73.52 38.93,-166.58c11.08,-47.64 0.08,-84.46 -15.74,-99.81c-3.05,-2.94 -6.2,-4.94 -8.81,-5.68z"/>
  </g>
  <g id="svg_4">
   <path id="svg_5" d="m986.17991,1783.25997c-5.25,0 -10.29,-2.42 -13.57,-6.69c-91.28,-118.9 -128.79,-234.31 -111.5,-343.01c18.56,-116.67 99.76,-225.01 241.34,-322c27.4,-18.75 54.91,-33.49 79.18,-46.49c38.58,-20.67 71.91,-38.53 93.2,-65.31c23.62,-29.7 48.98,-73.44 73.5,-115.75c38.33,-66.11 74.54,-128.56 109.85,-150.8c12.61,-7.94 24.2,-13.31 34.7,-16.09c-0.93,-3.94 -12.72,-54.03 -41.82,-178.68c-15.05,-64.79 3.19,-110.76 25.29,-132.19c13.45,-13.04 29.68,-18.27 44.51,-14.34c17.44,4.54 24.78,28 37.36,80.44c2.1,8.78 4.09,17.07 5.55,21.87c9.72,32.11 25.91,69.24 41.56,105.14c29.92,68.64 58.18,133.46 53.26,181.63c-0.88,8.62 -1.79,18.39 -2.79,29.11c-9.09,97.6 -26.01,279.28 -99.36,381.07c-93.91,130.27 -195.31,187.83 -284.78,238.61c-59.67,33.88 -116.04,65.87 -162.09,115.35c-51.13,54.94 -85.04,126.34 -106.69,224.7c-1.43,6.5 -6.5,11.58 -12.99,13.02c-1.23,0.28 -2.48,0.41 -3.71,0.41zm522.31,-1034.17c-5.01,0 -14.75,2.16 -32.07,13.07c-28.17,17.75 -63.92,79.39 -98.48,139.01c-25.14,43.37 -51.14,88.21 -76.32,119.88c-25.69,32.31 -63.65,52.65 -103.83,74.17c-24.65,13.21 -50.14,26.87 -76,44.57c-133.52,91.47 -209.86,192.11 -226.88,299.14c-14.36,90.29 13.67,186.83 83.36,287.38c23.19,-86.39 57.38,-151.99 106.26,-204.5c49.63,-53.33 108.22,-86.59 170.25,-121.8c90.64,-51.45 184.37,-104.66 273.91,-228.86c67.9,-94.23 84.26,-269.87 93.04,-364.23c1.01,-10.84 1.93,-20.72 2.82,-29.42c4.01,-39.23 -23.75,-102.9 -50.59,-164.47c-16.05,-36.81 -32.64,-74.88 -42.94,-108.88c-1.75,-5.76 -3.76,-14.14 -6.08,-23.83c-3.58,-14.93 -10.62,-44.3 -16.01,-55.14c-2.32,0.64 -5.34,2.33 -8.74,5.63c-15.83,15.36 -26.85,52.19 -15.78,99.86c21.78,93.28 33.86,144.79 38.94,166.44c20.18,3.63 43.05,18.19 48.46,51.46c5.38,33.26 -7.91,68.41 -26.3,117.07c-8.07,21.34 -17.21,45.52 -26.47,73.79c-1.64,5.06 -3.2,10.36 -4.71,15.48c-4.99,16.92 -9.7,32.91 -18.4,46.13c-15.29,23.27 -67.89,99.79 -102.53,107.31c-8.22,1.78 -16.51,-2.66 -19.57,-10.49c-3.06,-7.83 0.01,-16.72 7.26,-20.98c11.68,-6.93 58.56,-73.01 69.47,-95.79c6.65,-14.03 44.4,-129.94 68.53,-205.62c0.59,-9.14 -1.31,-22.48 -6.13,-25.47c-0.33,-0.22 -1.64,-0.91 -4.47,-0.91zm3.67,-324.09c0.01,0 0.01,0 0.02,0.01c-0.01,-0.01 -0.02,-0.01 -0.02,-0.01z"/>
  </g>
 </g>
</svg>